<svg xmlns="http://www.w3.org/2000/svg" viewBox="0 0 160 159.8"><path d="M150.2 54c0-1.1-.6-2-1.5-2.6l-8.7-4.9 8.7-4.8c.9-.5 1.5-1.5 1.5-2.5 0-1.1-.6-2-1.5-2.6L101 9.6c-.8-.5-1.9-.5-2.7-.1L11.7 52c-1 .5-1.6 1.4-1.6 2.5-.1 1.1.5 2.1 1.4 2.6l8.8 5.5-8.6 4.2c-1 .5-1.6 1.4-1.6 2.5-.1 1.1.5 2.1 1.4 2.6l9.3 5.8-9 4.4c-1 .5-1.6 1.4-1.6 2.5-.1 1.1.5 2.1 1.4 2.6l9.3 5.8-9.1 4.4c-1 .5-1.6 1.4-1.6 2.5-.1 1.1.5 2.1 1.4 2.6l9.3 5.8-9.1 4.4c-1 .5-1.6 1.4-1.6 2.5-.1 1.1.5 2.1 1.4 2.6l49.7 31c.5.3 1 .4 1.5.4s1-.1 1.4-.4l84.7-46.5c.9-.5 1.5-1.5 1.5-2.5 0-1.1-.6-2-1.5-2.6l-9.2-5.2 9.2-5c.9-.5 1.5-1.5 1.5-2.5 0-1.1-.6-2-1.5-2.6l-9.2-5.2 9.2-5c.9-.5 1.5-1.5 1.5-2.5 0-1.1-.6-2-1.5-2.6l-9.2-5.2 9.2-5c.7-.4 1.3-1.4 1.3-2.4zM99.5 15.5l41.8 23.6-18.7 10.3-39.8-25.8 16.7-8.1zM88.6 69.2L46.2 41.6l30.5-15 42.4 27.5v58l-29.2 16.1V71.6c0-1-.5-1.9-1.3-2.4zM40.1 44.6l41.8 27.1-19.2 10.6L19 54.9l21.1-10.3zm-14 21.7l35 21.8c.5.3 1 .4 1.5.4s1-.1 1.4-.4l20.1-11v8.2L62.7 97.1 19 69.8l7.1-3.5zm.5 15.1l34.5 21.5c.5.3 1 .4 1.5.4s1-.1 1.4-.4l20.1-11v8.7l-21.4 11.7L19 85.1l7.6-3.7zm0 15.3l34.5 21.5c.5.3 1 .4 1.5.4s1-.1 1.4-.4l20.1-11v8.7l-21.4 11.7L19 100.5l7.6-3.8zm36.1 46.4L19 115.8l7.6-3.7 34.5 21.5c.5.3 1 .4 1.5.4s1-.1 1.4-.4l20.1-11v8.7l-21.4 11.8zm78.6-43.1l-16.3 8.9v-8.7l8.5-4.7 7.8 4.5zm0-15.4l-16.3 9v-8.7l8.5-4.7 7.8 4.4zm0-15.3L125 78.2v-8.7l8.5-4.7 7.8 4.5zM125 62.9v-8.2l9-4.9 7.3 4.1-16.3 9z"/><path class="st0" d="M97 57.4l2.5-1.6-4.3-2.6c3.3-3.1 2.4-6.4-.9-8.3-3.7-2.2-7.9-2.1-13.7-.5-4.9 1.4-7.4 1.7-9.6.4-1.7-1-2.4-2.9.6-4.9 2.5-1.7 5-2.2 6.4-2.4l-1.8-2.3c-1.8.3-4.1 1-6.5 2.5l-4-2.4-2.5 1.7 4.2 2.5c-3 2.8-2.7 5.9.8 7.9 3.6 2.1 8 1.6 13.7 0 4.1-1.2 7.1-1.4 9.4 0 2.4 1.4 2.2 3.7-.6 5.5-2.2 1.5-5 2.3-7.4 2.7l1.8 2.3c2.4-.3 5.5-1.4 7.8-2.9l4.1 2.4z"/></svg>