<svg xmlns="http://www.w3.org/2000/svg" viewBox="0 0 160 159.8"><path d="M69.5 69.9v-7h44v7h-44zm0 31.9v-7h44v7h-44zm0 31.9v-7h44v7h-44zM48.3 69.9c1.1 1.1 2.9 2.1 4.5 2.1 1 0 2.3-.6 2.3-1.8 0-1.4-1.9-1.6-3.9-2.4-1.9-.7-3.9-1.8-3.9-4.9 0-2.9 2-5.7 5.1-5.9v-3h2.3v3c1.6.2 3.2.6 4.5 1.4L57.4 62c-.9-.7-2-1.2-3.2-1.2-1.1 0-2.1.4-2.1 1.4 0 1.1 1.6 1.6 2.4 1.9 2.8.9 5.4 2 5.4 5.5s-2 5.3-5.2 6.1v3.1h-2.3v-3c-1.1 0-2.2-.2-3.2-.6s-2.1-.9-2.9-1.6l2-3.7zm0 63.6c1.1 1.1 2.9 2.1 4.5 2.1 1 0 2.3-.6 2.3-1.8 0-1.4-1.9-1.6-3.9-2.4-1.9-.7-3.9-1.8-3.9-4.9 0-2.9 2-5.7 5.1-5.9v-3h2.3v3c1.6.2 3.2.6 4.5 1.4l-1.8 3.6c-.9-.7-2-1.2-3.2-1.2-1.1 0-2.1.4-2.1 1.4 0 1.1 1.6 1.6 2.4 1.9 2.8.9 5.4 2 5.4 5.5s-2 5.3-5.2 6.1v3.1h-2.3v-3c-1.1 0-2.2-.2-3.2-.6s-2.1-.9-2.9-1.6l2-3.7zm0-31.8c1.1 1.1 2.9 2.1 4.5 2.1 1 0 2.3-.6 2.3-1.8 0-1.4-1.9-1.6-3.9-2.4-1.9-.7-3.9-1.8-3.9-4.9 0-2.9 2-5.7 5.1-5.9v-3h2.3v3c1.6.2 3.2.6 4.5 1.4l-1.8 3.6c-.9-.7-2-1.2-3.2-1.2-1.1 0-2.1.4-2.1 1.4 0 1.1 1.6 1.6 2.4 1.9 2.8.9 5.4 2 5.4 5.5s-2 5.3-5.2 6.1v3.1h-2.3v-3c-1.1 0-2.2-.2-3.2-.6s-2.1-.9-2.9-1.6l2-3.7z"/><circle class="st0" cx="80" cy="21.4" r="3.1"/><path class="st0" d="M120.9 29H116c-.4-5.9-5.4-10.7-11.5-10.7h-5.4v-.8c0-8.5-6.9-15.4-15.4-15.4h-7.5c-8.5 0-15.4 6.9-15.4 15.4v.8h-5.4c-6.1 0-11 4.7-11.5 10.7H39c-6.3 0-11.5 5.2-11.5 11.5v105.6c0 6.3 5.2 11.5 11.5 11.5h81.8c6.3 0 11.5-5.2 11.5-11.5V40.5c.1-6.3-5.1-11.5-11.4-11.5zm-70.9.9c0-.3 0-.6.1-.8.4-2.6 2.7-4.7 5.4-4.7h11.4v-6.8c0-5.2 4.2-9.3 9.4-9.3h7.5c5.2 0 9.4 4.2 9.4 9.4v6.8h11.3c2.7 0 5 2 5.4 4.7 0 .3.1.6.1.8v5.2c-.2 2.9-2.6 5.1-5.5 5.1h-49c-2.9 0-5.3-2.3-5.5-5.1v-5.3zm76.4 116.2c0 3-2.5 5.5-5.5 5.5H39.1c-3 0-5.5-2.5-5.5-5.5V40.5c0-3 2.5-5.5 5.5-5.5H44c.2 6.2 5.3 11.1 11.5 11.1h49c6.2 0 11.3-5 11.5-11.1h4.9c3 0 5.5 2.5 5.5 5.5v105.6z"/></svg>