<svg xmlns="http://www.w3.org/2000/svg" viewBox="0 0 30 30"><defs><style>.cls-1{fill:#eee;}</style></defs><title>Blurb_Footer_SocialIcons</title><g id="Icons"><polygon class="cls-1" points="20.92 11.68 20.92 9.41 20.92 9.07 20.58 9.07 18.31 9.08 18.32 11.69 20.92 11.68"/><path class="cls-1" d="M19.21,15a4.21,4.21,0,1,1-8.12-1.58H8.8v6.31a1.48,1.48,0,0,0,1.48,1.48h9.46a1.48,1.48,0,0,0,1.48-1.48V13.42H18.9A4.22,4.22,0,0,1,19.21,15Z"/><path class="cls-1" d="M15,0A15,15,0,1,0,30,15,15,15,0,0,0,15,0Zm7.71,13.42v6.31a3,3,0,0,1-3,3H10.27a3,3,0,0,1-3-3V10.28a3,3,0,0,1,3-3h9.46a3,3,0,0,1,3,3Z"/><path class="cls-1" d="M15,17.71A2.71,2.71,0,1,0,12.29,15,2.71,2.71,0,0,0,15,17.71Z"/></g></svg>