<svg xmlns="http://www.w3.org/2000/svg" viewBox="0 0 30 30"><defs><style>.cls-1{fill:#eee;}</style></defs><title>Blurb_Footer_SocialIcons</title><g id="Icons"><path class="cls-1" d="M15,0A15,15,0,1,0,30,15,15,15,0,0,0,15,0ZM11.76,20.45H9.19V12.23h2.57ZM10.41,11.2h0a1.43,1.43,0,1,1,0-2.85,1.43,1.43,0,1,1,0,2.85ZM22,20.45H19.12V16.2c0-1.11-.45-1.87-1.46-1.87a1.47,1.47,0,0,0-1.39,1,1.86,1.86,0,0,0-.06.67v4.45H13.32s0-7.54,0-8.22h2.88v1.29a2.63,2.63,0,0,1,2.56-1.37c1.82,0,3.26,1.18,3.26,3.73Z"/></g></svg>