<?xml version="1.0" encoding="utf-8"?>
<!-- Generator: Adobe Illustrator 19.2.1, SVG Export Plug-In . SVG Version: 6.00 Build 0)  -->
<svg version="1.1" id="Layer_1" xmlns="http://www.w3.org/2000/svg" xmlns:xlink="http://www.w3.org/1999/xlink" x="0px" y="0px"
	 viewBox="0 0 160 159.8" style="enable-background:new 0 0 160 159.8;" xml:space="preserve">
<style type="text/css">
	.st0{fill:#9E9E9E;}
</style>
<g>
	<path class="st0" d="M61.8,99.6c0.2,1.3,0.3,2.6,0.5,3.9c0.5,3.6,1,7.1,1.4,10.7c0.5,3.5,0.9,7,1.4,10.6c0.5,3.5,0.9,7,1.4,10.5
		c0.4,2.9,0.7,5.8,1.2,8.6c0.3,2.3-1.1,4.1-3.4,4.1c-8.4,0-16.9,0-25.3,0c-2,0-3.2-1.1-3.4-3c-0.8-5.9-1.6-11.8-2.4-17.7
		c-0.8-6.2-1.6-12.4-2.5-18.6c-0.4-3-0.8-6-1.2-9.1c-0.3,0-0.5,0-0.8,0c-2.1,0-4.2,0.1-6.3-0.2c-5.3-0.6-9.7-4.9-10.8-10.1
		c-0.2-0.8-0.3-1.6-0.3-2.4c0-9.7,0-19.4,0-29.1c0-5.8,4.2-11.2,9.9-12.7c1-0.3,2-0.4,3-0.4c19.1,0,38.1-0.1,57.2,0
		c4.9,0,9.2-1.3,13-4.2c2.3-1.8,4.5-3.7,6.7-5.6c7.1-6.1,14.2-12.2,21.3-18.3c1.6-1.4,3.5-2.4,5.7-2.5c3.3-0.2,6,1.9,6.9,5.3
		c0.3,1.1,0.4,2.2,0.4,3.3c0,10.6,0,21.2,0,31.8c0,0.6,0.2,0.8,0.7,1c3.3,1.2,6.6,2.4,9.8,3.7c1.6,0.6,2.3,1.6,2.3,3.4
		c0,5.8,0,11.5,0,17.3c0,1.7-0.7,2.7-2.3,3.3c-3.3,1.3-6.6,2.5-10,3.7c-0.5,0.2-0.6,0.4-0.6,1c0,11.3,0,22.7,0,34
		c0,1.2-0.2,2.4-0.5,3.5c-1.3,4.4-5.3,6.2-9.5,4.5c-1.2-0.5-2.3-1.2-3.3-2c-8.8-7.7-17.6-15.4-26.5-23c-3-2.6-6.4-4.5-10.3-5.1
		c-0.7-0.1-1.5-0.2-2.2-0.2c-6.9,0-13.8,0-20.8,0C62.3,99.6,62.1,99.6,61.8,99.6z M128.7,20.6c-1.1,0.2-1.8,0.7-2.5,1.3
		c-8.3,7.2-16.7,14.4-25,21.6c-3.3,2.9-6.9,5.2-11,6.6c-2.3,0.8-4.6,1.2-7,1.2c-1.4,0-2.7,0-4.1,0c0,14,0,28,0,41.9
		c0.6,0,1.3,0,1.9,0c2.2,0,4.5,0,6.7,0.5c4.9,1.2,9.2,3.6,12.9,6.9c8.6,7.5,17.2,15,25.8,22.5c0.6,0.5,1.4,0.9,2.1,1.3
		c0.1,0,0.2-0.1,0.3-0.1c0.1-0.9,0.3-1.7,0.3-2.6c0-32.8,0-65.6,0-98.4c0-0.3,0-0.5,0-0.8C128.9,21.8,128.8,21.2,128.7,20.6z
		 M72.6,51.2c-0.2,0-0.4,0-0.6,0c-15.9,0-31.8,0-47.7,0c-0.3,0-0.5,0-0.8,0.1c-3.2,0.5-5.6,3.4-5.7,6.8c0,9.5,0,19.1,0,28.6
		c0,3.7,2.9,6.5,6.6,6.5c15.8,0,31.7,0,47.5,0c0.2,0,0.5,0,0.7,0C72.6,79.2,72.6,65.2,72.6,51.2z M36,99.6c1.9,14,3.7,27.9,5.6,41.9
		c6.4,0,12.8,0,19.3,0c-1.9-14-3.7-27.9-5.6-41.9C48.8,99.6,42.4,99.6,36,99.6z M135.5,80.4c2.1-0.8,4.1-1.5,6.1-2.3
		c0.2-0.1,0.3-0.4,0.3-0.6c0-4.1,0-8.2,0-12.3c0-0.4-0.1-0.6-0.5-0.7c-1.2-0.4-2.5-0.9-3.7-1.4c-0.7-0.3-1.5-0.5-2.3-0.8
		C135.5,68.4,135.5,74.4,135.5,80.4z"/>
</g>
</svg>
