<svg xmlns="http://www.w3.org/2000/svg" viewBox="0 0 160 159.8"><path d="M152.4 65.5V19.4c-.2-6.6-5.8-12-12.5-11.9-14.9.3-29.8.1-44.8.1-2.2 0-4.3 0-6.5.2-2.8.2-5.3 1.2-7.5 3.3-23.5 23.5-47 47.1-70.6 70.6-4 4-4 9.9 0 14 17.9 17.9 35.7 35.8 53.6 53.6 4 4 9.9 4 14 0l70.5-70.5c2.1-2.1 3.5-4.5 3.7-7.4.2-1.9.1-3.8.1-5.9zm-6.4 0v3.9c0 2.2-.7 4-2.3 5.6-23.3 23.2-46.6 46.5-69.9 69.8-2.2 2.2-3 2.2-5.2 0C50.8 127 33 109.1 15.1 91.3c-2.2-2.2-2.3-3-.1-5.2 23.4-23.4 46.8-46.8 70.2-70.3 1.2-1.2 2.6-1.8 4.2-1.9h50.9c4.2 0 5.5 1.4 5.5 5.5v42.9c.2.3.2 1.7.2 3.2z"/><path class="st0" d="M104.6 60.6c-1-1.2-1.8-2.2-2.9-3.4-1.1 1.3-2.1 2.5-3.1 3.7-.8-.6-1.4-1-1.9-1.4-7.6-5.2-17.1-3.2-22.1 4.6-1.3 2-1.9 4.2-1.6 6.6.4 3.7 2.1 6.8 3.9 9.9.5.9.5 1.4-.3 2.2-4 3.9-7.9 7.9-11.9 11.8-.3.3-.6.5-.9.8-1.5-2-2.3-4.1-2.5-6.5-.4-3.4 1-6.3 3.1-8.7-1.5-1.5-2.9-2.9-4.3-4.4-2.5 2.8-4.3 6-4.8 9.8-.7 5.3 1.2 9.9 4.7 14.2-1.5 1.3-3 2.6-4.4 3.7 1.1 1.1 1.9 2.1 2.9 3.2 1.4-1.5 2.6-2.9 4-4.4.8.6 1.3 1 1.8 1.4 3.4 2.4 7.1 3.7 11.4 3.5 6.2-.4 14.9-6.6 13.1-16.3-.6-3.4-2.2-6.2-4-9.1-.5-.8-.4-1.3.3-1.9 3.8-3.7 7.5-7.4 11.2-11.2.2-.2.4-.4.7-.6 2.4 3.5 2.4 7 .5 10.6-.2.5-.5 1.3-.2 1.6 1.2 1.4 2.5 2.6 3.9 4 4.3-7 5.3-13.7-.1-20.7 1.3-1.2 2.5-2.2 3.5-3zM79 99.3c-3.8 3.1-8.7 2.7-12-.9 4.3-4.3 8.5-8.5 12.8-12.7 3.7 5.2 3.5 10.1-.8 13.6zm3.2-22.5c-3.3-4.3-3.2-8.7.4-11.9 3.4-3.1 8-3 11.4.1-4 3.9-7.9 7.8-11.8 11.8zm41.7-53.4c-6.5 0-12.5 6-12.6 12.5-.1 6.5 6 12.6 12.6 12.7 6.5 0 12.6-6.1 12.6-12.6 0-6.6-6-12.6-12.6-12.6zm-.1 18.8c-3.9 0-6.2-2.4-6.2-6.4 0-3.8 2.4-6.2 6.3-6.2s6.3 2.5 6.3 6.4c0 3.9-2.4 6.3-6.4 6.2z"/></svg>