<?xml version="1.0" encoding="utf-8"?>
<!-- Generator: Adobe Illustrator 19.2.1, SVG Export Plug-In . SVG Version: 6.00 Build 0)  -->
<svg version="1.1" id="Layer_1" xmlns="http://www.w3.org/2000/svg" xmlns:xlink="http://www.w3.org/1999/xlink" x="0px" y="0px"
	 viewBox="0 0 160 159.8" style="enable-background:new 0 0 160 159.8;" xml:space="preserve">
<style type="text/css">
	.st0{fill:#9E9E9E;}
</style>
<g>
	<path class="st0" d="M150.2,64.4c-3-7.9-6-16-8.9-23.8l-3.3-8.8c-0.6-1.6-1.5-2.2-3.1-2.2l-8.5,0l0-1.6c0-1,0-2.1,0-3.1
		c0-4.1-2.9-8-6.7-9.3c-1.1-0.4-2.2-0.5-3.4-0.5c-24.3,0-48.6,0-72.8,0c-5,0-9.1,3.4-9.9,8.3c-0.2,1.4-0.2,2.8-0.2,4.1
		c0,0.6,0,1.2,0,1.8c0,0.1,0,0.2,0,0.4h-8.2c-1.9,0-2.7,0.6-3.4,2.4l-2.4,6.5c-3.3,8.9-6.6,17.9-10,26.9c-0.2,0.5-0.2,1.2-0.2,1.8
		c0,0.3,0.1,0.6,0.1,0.9c0,0.2,0.1,0.3,0.1,0.5c0.8,5.7,5.7,10.2,11.4,10.4c0.7,0,1.5,0,2.2,0c0.2,0,0.4,0,0.6,0l0,13.2
		c0,17.1,0,34.3,0,51.4c0,1,0.3,1.9,0.9,2.5c0.6,0.6,1.4,0.9,2.4,0.9c0,0,0,0,0.1,0c2.7,0,5.5,0,8.2,0c2,0,3.9,0,5.9,0
		c0.6,0,1.2-0.2,1.8-0.5c1.1-0.7,1.2-1.9,1.2-2.7c0-8.1,0-16.2,0-24.2v-6.4h13.5v29.7l0,0.4c0,0.3,0,0.6,0,0.9
		c0,1.6,1.3,2.8,2.8,2.8c0.2,0,0.5,0,0.7,0c0.2,0,0.3,0,0.5,0l71.3,0c1.5,0,2.7-0.8,3-2.1c0.1-0.4,0.1-0.8,0.1-1.3
		c0-17.9,0-35.7,0-53.6v-11c0,0,0,0,0.1,0c6,0.9,11.4-2.2,13.5-7.8C150.5,69,151.2,66.8,150.2,64.4z M63.6,109.9
		c-0.1-1.7-1.3-2.8-3-2.9c-6.4,0-12.9,0-19.3,0c-1.8,0-3,1.2-3,3l0,30.8h-8.7v-4.8c0-19.8,0-39.7,0-59.5c0-0.3,0.1-0.5,0.3-0.6
		c0.5-0.4,1-0.9,1.5-1.3l0.2-0.2c2.4,3,5.7,4.5,9.6,4.5c0,0,0,0,0,0c4,0,7.2-1.6,9.7-4.7c2.5,3.1,5.7,4.7,9.7,4.7c0,0,0,0,0,0
		c4,0,7.2-1.6,9.7-4.7c2.5,3.1,5.7,4.7,9.7,4.7c0,0,0,0,0,0c3.9,0,7.2-1.6,9.7-4.7c2.5,3.1,5.7,4.7,9.6,4.7c0,0,0,0,0,0
		c4,0,7.2-1.6,9.7-4.7c2.5,3.1,5.7,4.7,9.7,4.7c0,0,0,0,0,0c4,0,7.2-1.6,9.7-4.7l0.2,0.2c0.6,0.6,1.2,1.1,1.7,1.8c0,0.1,0,0.2,0,0.3
		l0,64.4H63.6v-30.3l0-0.2C63.6,110.3,63.6,110.1,63.6,109.9z M126.9,63.9c-0.9,0.5-1.3,1.4-1.3,2.4c-0.1,3.6-2.4,6.2-5.9,6.8
		c-1.7,0.3-3.6-0.3-5-1.5c-1.5-1.2-2.4-2.9-2.5-4.6l0-0.1c0-0.4,0-0.8-0.1-1.2c-0.3-1.5-1.7-2.4-3.3-2.2c-1.4,0.2-2.5,1.4-2.5,2.9
		c-0.1,3.6-2.4,6.2-6,6.8c-1.7,0.3-3.6-0.3-5-1.5c-1.5-1.2-2.4-2.9-2.5-4.6l0-0.1c0-0.4,0-0.8-0.1-1.2c-0.3-1.3-1.5-2.2-2.9-2.2
		c-0.1,0-0.3,0-0.4,0c-1.3,0.2-2.4,1.4-2.5,2.8c-0.1,3.7-2.3,6.2-5.9,6.8c-1.7,0.3-3.6-0.2-5.1-1.4c-1.5-1.2-2.4-2.9-2.5-4.7l0-0.1
		c0-0.4,0-0.8-0.1-1.2c-0.4-1.4-1.7-2.3-3.3-2.1c-1.3,0.2-2.4,1.4-2.5,2.8c-0.1,3.7-2.3,6.2-5.9,6.8c-1.7,0.3-3.6-0.2-5.1-1.4
		c-1.5-1.2-2.4-2.9-2.5-4.7l0-0.1c0-0.4,0-0.8-0.1-1.2c-0.4-1.4-1.7-2.3-3.3-2.1c-1.3,0.2-2.4,1.4-2.5,2.8c-0.1,3.7-2.3,6.2-5.9,6.8
		c-1.7,0.3-3.6-0.2-5.1-1.4c-1.5-1.2-2.4-2.9-2.5-4.7l0-0.1c0-0.4,0-0.8-0.1-1.3c-0.4-1.4-1.7-2.3-3.3-2.1c-1.4,0.2-2.4,1.4-2.5,2.9
		c-0.1,3.5-2.3,6.1-5.8,6.7c-1.6,0.3-3.4-0.1-4.8-1.2c-1.5-1-2.5-2.6-2.7-4.3c-0.1-0.5,0-1,0.2-1.6c3.7-10.1,7.5-20.1,11.2-30.2
		c0.1-0.4,0.2-0.4,0.6-0.4c0,0,0,0,0,0c15.1,0,30.3,0,45.4,0h15.1c15,0,30,0,45,0c0.5,0,0.5,0.1,0.7,0.5
		c3.7,10.1,7.4,20.1,11.2,30.2c0.2,0.6,0.2,1.1,0.1,1.8c-0.8,3.3-3.8,5.5-7.1,5.2c-3.4-0.3-6-3.1-6.1-6.5c0-1.4-0.6-2.3-1.6-2.8
		C128.8,63.2,127.8,63.3,126.9,63.9z M43.5,20.9c24.3,0,48.7,0,73,0c2.3,0,4,1.6,4.1,3.9c0,1.2,0,2.4,0,3.6c0,0.4,0,0.8,0,1.2H39.3
		c0-0.5,0-0.9,0-1.4c0-1.4,0-2.8,0.2-4.1C39.8,22.2,41.4,20.9,43.5,20.9z"/>
	<path class="st0" d="M85.1,127.4l16.7,0l16.7,0c2,0,3.2-1.2,3.2-3.2c0-9.5,0-19,0-28.5c0-1.9-1.3-3.2-3.2-3.2
		c-11.1,0-22.3,0-33.4,0c-2,0-3.2,1.2-3.2,3.2c0,9.5,0,19,0,28.5C81.9,126.2,83.1,127.4,85.1,127.4z M87.8,121.5V98.4h28v23.1H87.8z
		"/>
</g>
</svg>
