<?xml version="1.0" encoding="utf-8"?>
<!-- Generator: Adobe Illustrator 19.2.1, SVG Export Plug-In . SVG Version: 6.00 Build 0)  -->
<svg version="1.1" id="Layer_1" xmlns="http://www.w3.org/2000/svg" xmlns:xlink="http://www.w3.org/1999/xlink" x="0px" y="0px"
	 viewBox="0 0 160 159.8" style="enable-background:new 0 0 160 159.8;" xml:space="preserve">
<style type="text/css">
	.st0{fill:#9E9E9E;}
</style>
<g>
	<path class="st0" d="M141.2,61.8L130.2,37h-20h-5H17.8v19.5h5V42h82.4v58.4H22.8V85.3h-5v20.1h3.5v14.5h11.1c2.1,5,7,8.6,12.7,8.6
		s10.7-3.5,12.7-8.6h58.6c2.1,5,7,8.6,12.7,8.6c5.7,0,10.7-3.5,12.7-8.6h13.5v-14.5v-5V71.6L141.2,61.8z M31.3,114.8h-5.1v-9.5h8.7
		c-0.1,0.1-0.1,0.2-0.2,0.3c-0.1,0.1-0.3,0.3-0.4,0.5c-0.1,0.2-0.3,0.4-0.4,0.6c-0.1,0.2-0.2,0.3-0.3,0.5c-0.1,0.2-0.2,0.4-0.4,0.6
		c-0.1,0.2-0.2,0.3-0.3,0.5c-0.1,0.2-0.2,0.4-0.3,0.6c-0.1,0.2-0.2,0.4-0.2,0.5c-0.1,0.2-0.2,0.5-0.3,0.7c-0.1,0.2-0.1,0.4-0.2,0.5
		c-0.1,0.2-0.1,0.5-0.2,0.8c0,0.2-0.1,0.3-0.1,0.5c-0.1,0.3-0.1,0.6-0.1,0.9c0,0.2,0,0.3-0.1,0.5c0,0.4-0.1,0.9-0.1,1.4
		C31.3,114.7,31.3,114.8,31.3,114.8z M45.1,123.4c-3.9,0-7.1-2.5-8.3-6l-0.2-0.7c-0.2-0.8-0.3-1.5-0.3-2.1c0-4.8,3.9-8.8,8.8-8.8
		s8.8,3.9,8.8,8.8c0,0.6-0.1,1.3-0.3,2.1l-0.2,0.7C52.2,120.9,49,123.4,45.1,123.4z M115.4,114.8H58.9c0-0.1,0-0.2,0-0.2
		c0-0.5,0-0.9-0.1-1.4c0-0.2,0-0.3-0.1-0.4c0-0.3-0.1-0.6-0.1-0.9c0-0.2-0.1-0.4-0.1-0.5c-0.1-0.3-0.1-0.5-0.2-0.8
		c-0.1-0.2-0.1-0.4-0.2-0.5c-0.1-0.2-0.2-0.5-0.3-0.7c-0.1-0.2-0.2-0.4-0.2-0.5c-0.1-0.2-0.2-0.4-0.3-0.6c-0.1-0.2-0.2-0.3-0.3-0.5
		c-0.1-0.2-0.2-0.4-0.4-0.6c-0.1-0.2-0.2-0.3-0.3-0.5c-0.1-0.2-0.3-0.4-0.4-0.6c-0.1-0.2-0.2-0.3-0.4-0.5c-0.1-0.1-0.1-0.2-0.2-0.3
		h49.9h5h8.9c-0.1,0.1-0.1,0.2-0.2,0.3c-0.1,0.1-0.3,0.3-0.4,0.5c-0.1,0.2-0.3,0.4-0.4,0.6c-0.1,0.2-0.2,0.3-0.3,0.5
		c-0.1,0.2-0.2,0.4-0.4,0.6c-0.1,0.2-0.2,0.3-0.3,0.5c-0.1,0.2-0.2,0.4-0.3,0.6c-0.1,0.2-0.2,0.4-0.2,0.5c-0.1,0.2-0.2,0.5-0.3,0.7
		c-0.1,0.2-0.1,0.4-0.2,0.5c-0.1,0.2-0.1,0.5-0.2,0.8c0,0.2-0.1,0.3-0.1,0.5c-0.1,0.3-0.1,0.6-0.1,0.9c0,0.2,0,0.3-0.1,0.5
		c0,0.4-0.1,0.9-0.1,1.4C115.4,114.7,115.4,114.8,115.4,114.8z M129.2,123.4c-3.9,0-7.1-2.5-8.3-6l-0.2-0.7
		c-0.2-0.8-0.3-1.5-0.3-2.1c0-4.8,3.9-8.8,8.8-8.8c4.8,0,8.8,3.9,8.8,8.8c0,0.6-0.1,1.3-0.3,2.1l-0.2,0.7
		C136.4,120.9,133.1,123.4,129.2,123.4z M150.5,114.8H143c0-0.1,0-0.2,0-0.2c0-0.5,0-0.9-0.1-1.4c0-0.2,0-0.3-0.1-0.4
		c0-0.3-0.1-0.6-0.1-0.9c0-0.2-0.1-0.4-0.1-0.5c-0.1-0.3-0.1-0.5-0.2-0.8c-0.1-0.2-0.1-0.4-0.2-0.5c-0.1-0.2-0.2-0.5-0.3-0.7
		c-0.1-0.2-0.2-0.4-0.2-0.5c-0.1-0.2-0.2-0.4-0.3-0.6c-0.1-0.2-0.2-0.3-0.3-0.5c-0.1-0.2-0.2-0.4-0.4-0.6c-0.1-0.2-0.2-0.3-0.3-0.5
		c-0.1-0.2-0.3-0.4-0.4-0.6c-0.1-0.2-0.2-0.3-0.4-0.5c-0.1-0.1-0.1-0.2-0.2-0.3h11.1V114.8z M110.1,100.4V42h16.8l10.3,23.1
		l13.3,9.2v26.1H110.1z"/>
	<rect x="3.3" y="62.4" class="st0" width="33" height="5.8"/>
	<rect x="8.1" y="74.6" class="st0" width="23.4" height="5.6"/>
</g>
</svg>
