<svg xmlns="http://www.w3.org/2000/svg" viewBox="0 0 30 30"><defs><style>.cls-1{fill:#eee;}</style></defs><title>Blurb_Footer_SocialIcons</title><g id="Icons"><path class="cls-1" d="M15,0A15,15,0,1,0,30,15,15,15,0,0,0,15,0Zm5.24,12.31c0,.11,0,.23,0,.35A7.69,7.69,0,0,1,8.41,19.14a5.46,5.46,0,0,0,4-1.12,2.7,2.7,0,0,1-2.52-1.88,2.67,2.67,0,0,0,.51,0,2.63,2.63,0,0,0,.71-.1,2.7,2.7,0,0,1-2.17-2.65v0a2.71,2.71,0,0,0,1.22.34,2.71,2.71,0,0,1-.84-3.61A7.67,7.67,0,0,0,14.9,13a2.66,2.66,0,0,1-.07-.62A2.7,2.7,0,0,1,19.5,10.5a5.39,5.39,0,0,0,1.72-.65A2.7,2.7,0,0,1,20,11.34a5.42,5.42,0,0,0,1.55-.43A5.48,5.48,0,0,1,20.24,12.31Z"/></g></svg>