<svg xmlns="http://www.w3.org/2000/svg"><defs><style>.cls-1,.cls-2{fill:none;stroke:#c2c6c9;}.cls-1{stroke-miterlimit:10;stroke-width:0.46px;}.cls-2{stroke-linecap:round;stroke-linejoin:round;stroke-width:2.29px;}.cls-3{fill:#c2c6c9;}</style><style>.cls-1{fill:#eee;}</style><style>.cls-1{fill:#eee;}</style><style>.cls-1{fill:#eee;}</style><style>.cls-1{fill:#eee;}</style></defs><symbol viewBox="0 0 135 40" id="apple_badge"><title>apple_badge</title><path fill="#A6A6A6" d="M130.197 40H4.729A4.74 4.74 0 0 1 0 35.267V4.726A4.733 4.733 0 0 1 4.729 0h125.468C132.803 0 135 2.12 135 4.726v30.541c0 2.605-2.197 4.733-4.803 4.733z"/><path d="M134.032 35.268a3.83 3.83 0 0 1-3.834 3.83H4.729a3.835 3.835 0 0 1-3.839-3.83V4.725A3.84 3.84 0 0 1 4.729.89h125.468a3.834 3.834 0 0 1 3.834 3.835l.001 30.543z"/><g fill="#FFF"><path d="M30.128 19.784c-.029-3.223 2.639-4.791 2.761-4.864-1.511-2.203-3.853-2.504-4.676-2.528-1.967-.207-3.875 1.177-4.877 1.177-1.022 0-2.565-1.157-4.228-1.123-2.14.033-4.142 1.272-5.24 3.196-2.266 3.923-.576 9.688 1.595 12.859 1.086 1.553 2.355 3.287 4.016 3.226 1.625-.067 2.232-1.036 4.193-1.036 1.943 0 2.513 1.036 4.207.997 1.744-.028 2.842-1.56 3.89-3.127 1.255-1.78 1.759-3.533 1.779-3.623-.041-.014-3.387-1.291-3.42-5.154zM26.928 10.306c.874-1.093 1.472-2.58 1.306-4.089-1.265.056-2.847.875-3.758 1.944-.806.942-1.526 2.486-1.34 3.938 1.421.106 2.88-.717 3.792-1.793z"/></g><g fill="#FFF"><path d="M53.645 31.504h-2.271l-1.244-3.909h-4.324l-1.185 3.909H42.41l4.284-13.308h2.646l4.305 13.308zm-3.89-5.549L48.63 22.48c-.119-.355-.342-1.191-.671-2.507h-.04a96.75 96.75 0 0 1-.632 2.507l-1.105 3.475h3.573zM64.662 26.588c0 1.632-.441 2.922-1.323 3.869-.79.843-1.771 1.264-2.942 1.264-1.264 0-2.172-.454-2.725-1.362h-.04v5.055H55.5V25.067c0-1.026-.027-2.079-.079-3.159h1.875l.119 1.521h.04c.711-1.146 1.79-1.718 3.238-1.718 1.132 0 2.077.447 2.833 1.342.758.896 1.136 2.074 1.136 3.535zm-2.172.078c0-.934-.21-1.704-.632-2.31-.461-.632-1.08-.948-1.856-.948-.526 0-1.004.176-1.431.523-.428.35-.708.807-.839 1.373-.066.264-.099.48-.099.65v1.6c0 .698.214 1.287.642 1.768s.984.721 1.668.721c.803 0 1.428-.31 1.875-.928.448-.619.672-1.435.672-2.449zM75.699 26.588c0 1.632-.441 2.922-1.324 3.869-.789.843-1.77 1.264-2.941 1.264-1.264 0-2.172-.454-2.724-1.362h-.04v5.055h-2.132V25.067c0-1.026-.027-2.079-.079-3.159h1.875l.119 1.521h.04c.71-1.146 1.789-1.718 3.238-1.718 1.131 0 2.076.447 2.834 1.342.755.896 1.134 2.074 1.134 3.535zm-2.172.078c0-.934-.211-1.704-.633-2.31-.461-.632-1.078-.948-1.855-.948a2.22 2.22 0 0 0-1.432.523c-.428.35-.707.807-.838 1.373-.065.264-.099.48-.099.65v1.6c0 .698.214 1.287.64 1.768.428.48.984.721 1.67.721.803 0 1.428-.31 1.875-.928.448-.619.672-1.435.672-2.449zM88.039 27.772c0 1.132-.393 2.053-1.182 2.764-.867.777-2.074 1.165-3.625 1.165-1.432 0-2.58-.276-3.449-.829l.494-1.777c.936.566 1.963.85 3.082.85.803 0 1.428-.182 1.877-.544.447-.362.67-.848.67-1.454 0-.54-.184-.995-.553-1.364-.367-.369-.98-.712-1.836-1.029-2.33-.869-3.494-2.142-3.494-3.816 0-1.094.408-1.991 1.225-2.689.814-.699 1.9-1.048 3.258-1.048 1.211 0 2.217.211 3.02.632l-.533 1.738c-.75-.408-1.598-.612-2.547-.612-.75 0-1.336.185-1.756.553a1.58 1.58 0 0 0-.533 1.205c0 .526.203.961.611 1.303.355.316 1 .658 1.936 1.027 1.145.461 1.986 1 2.527 1.618.539.616.808 1.387.808 2.307zM95.088 23.508h-2.35v4.659c0 1.185.414 1.777 1.244 1.777.381 0 .697-.033.947-.099l.059 1.619c-.42.157-.973.236-1.658.236-.842 0-1.5-.257-1.975-.77-.473-.514-.711-1.376-.711-2.587v-4.837h-1.4v-1.6h1.4v-1.757l2.094-.632v2.389h2.35v1.602zM105.691 26.627c0 1.475-.422 2.686-1.264 3.633-.883.975-2.055 1.461-3.516 1.461-1.408 0-2.529-.467-3.365-1.401s-1.254-2.113-1.254-3.534c0-1.487.43-2.705 1.293-3.652.861-.948 2.023-1.422 3.484-1.422 1.408 0 2.541.467 3.396 1.402.818.907 1.226 2.078 1.226 3.513zm-2.212.069c0-.885-.189-1.644-.572-2.277-.447-.766-1.086-1.148-1.914-1.148-.857 0-1.508.383-1.955 1.148-.383.634-.572 1.405-.572 2.317 0 .885.189 1.644.572 2.276.461.766 1.105 1.148 1.936 1.148.814 0 1.453-.39 1.914-1.168.393-.645.591-1.412.591-2.296zM112.621 23.783a3.702 3.702 0 0 0-.672-.059c-.75 0-1.33.283-1.738.85-.355.5-.533 1.132-.533 1.895v5.035h-2.131l.02-6.574c0-1.106-.027-2.113-.08-3.021h1.857l.078 1.836h.059c.225-.631.58-1.139 1.066-1.52a2.578 2.578 0 0 1 1.541-.514c.197 0 .375.014.533.039v2.033zM122.156 26.252a5 5 0 0 1-.078.967h-6.396c.025.948.334 1.673.928 2.173.539.447 1.236.671 2.092.671.947 0 1.811-.151 2.588-.454l.334 1.48c-.908.396-1.98.593-3.217.593-1.488 0-2.656-.438-3.506-1.313-.848-.875-1.273-2.05-1.273-3.524 0-1.447.395-2.652 1.186-3.613.828-1.026 1.947-1.539 3.355-1.539 1.383 0 2.43.513 3.141 1.539.563.815.846 1.823.846 3.02zm-2.033-.553c.014-.632-.125-1.178-.414-1.639-.369-.593-.936-.889-1.699-.889-.697 0-1.264.289-1.697.869-.355.461-.566 1.014-.631 1.658h4.441z"/></g><g fill="#FFF"><path d="M49.05 10.009c0 1.177-.353 2.063-1.058 2.658-.653.549-1.581.824-2.783.824-.596 0-1.106-.026-1.533-.078V6.982c.557-.09 1.157-.136 1.805-.136 1.145 0 2.008.249 2.59.747.652.563.979 1.368.979 2.416zm-1.105.029c0-.763-.202-1.348-.606-1.756-.404-.407-.994-.611-1.771-.611-.33 0-.611.022-.844.068v4.889c.129.02.365.029.708.029.802 0 1.421-.223 1.857-.669s.656-1.096.656-1.95zM54.909 11.037c0 .725-.207 1.319-.621 1.785-.434.479-1.009.718-1.727.718-.692 0-1.243-.229-1.654-.689-.41-.459-.615-1.038-.615-1.736 0-.73.211-1.329.635-1.794s.994-.698 1.712-.698c.692 0 1.248.229 1.669.688.4.446.601 1.022.601 1.726zm-1.087.034c0-.435-.094-.808-.281-1.119-.22-.376-.533-.564-.94-.564-.421 0-.741.188-.961.564-.188.311-.281.69-.281 1.138 0 .435.094.808.281 1.119.227.376.543.564.951.564.4 0 .714-.191.94-.574.194-.317.291-.693.291-1.128zM62.765 8.719l-1.475 4.714h-.96l-.611-2.047a15.32 15.32 0 0 1-.379-1.523h-.019a11.15 11.15 0 0 1-.379 1.523l-.649 2.047h-.971l-1.387-4.714h1.077l.533 2.241c.129.53.235 1.035.32 1.513h.019c.078-.394.207-.896.389-1.503l.669-2.25h.854l.641 2.202c.155.537.281 1.054.378 1.552h.029c.071-.485.178-1.002.32-1.552l.572-2.202h1.029zM68.198 13.433H67.15v-2.7c0-.832-.316-1.248-.95-1.248a.946.946 0 0 0-.757.343 1.217 1.217 0 0 0-.291.808v2.796h-1.048v-3.366c0-.414-.013-.863-.038-1.349h.921l.049.737h.029c.122-.229.304-.418.543-.569.284-.176.602-.265.95-.265.44 0 .806.142 1.097.427.362.349.543.87.543 1.562v2.824zM71.088 13.433h-1.047V6.556h1.047v6.877zM77.258 11.037c0 .725-.207 1.319-.621 1.785-.434.479-1.01.718-1.727.718-.693 0-1.244-.229-1.654-.689-.41-.459-.615-1.038-.615-1.736 0-.73.211-1.329.635-1.794s.994-.698 1.711-.698c.693 0 1.248.229 1.67.688.4.446.601 1.022.601 1.726zm-1.088.034c0-.435-.094-.808-.281-1.119-.219-.376-.533-.564-.939-.564-.422 0-.742.188-.961.564-.188.311-.281.69-.281 1.138 0 .435.094.808.281 1.119.227.376.543.564.951.564.4 0 .713-.191.939-.574.195-.317.291-.693.291-1.128zM82.33 13.433h-.941l-.078-.543h-.029c-.322.433-.781.65-1.377.65-.445 0-.805-.143-1.076-.427a1.339 1.339 0 0 1-.369-.96c0-.576.24-1.015.723-1.319.482-.304 1.16-.453 2.033-.446V10.3c0-.621-.326-.931-.979-.931-.465 0-.875.117-1.229.349l-.213-.688c.438-.271.979-.407 1.617-.407 1.232 0 1.85.65 1.85 1.95v1.736c0 .471.023.846.068 1.124zm-1.088-1.62v-.727c-1.156-.02-1.734.297-1.734.95 0 .246.066.43.201.553a.733.733 0 0 0 .512.184c.23 0 .445-.073.641-.218a.893.893 0 0 0 .38-.742zM88.285 13.433h-.93l-.049-.757h-.029c-.297.576-.803.864-1.514.864-.568 0-1.041-.223-1.416-.669s-.562-1.025-.562-1.736c0-.763.203-1.381.611-1.853.395-.44.879-.66 1.455-.66.633 0 1.076.213 1.328.64h.02V6.556h1.049v5.607c0 .459.012.882.037 1.27zm-1.086-1.988v-.786a1.194 1.194 0 0 0-.408-.965 1.03 1.03 0 0 0-.701-.257c-.391 0-.697.155-.922.466-.223.311-.336.708-.336 1.193 0 .466.107.844.322 1.135.227.31.533.465.916.465.344 0 .619-.129.828-.388.202-.239.301-.527.301-.863zM97.248 11.037c0 .725-.207 1.319-.621 1.785-.434.479-1.008.718-1.727.718-.691 0-1.242-.229-1.654-.689-.41-.459-.615-1.038-.615-1.736 0-.73.211-1.329.635-1.794s.994-.698 1.713-.698c.691 0 1.248.229 1.668.688.4.446.601 1.022.601 1.726zm-1.086.034c0-.435-.094-.808-.281-1.119-.221-.376-.533-.564-.941-.564-.42 0-.74.188-.961.564-.188.311-.281.69-.281 1.138 0 .435.094.808.281 1.119.227.376.543.564.951.564.4 0 .715-.191.941-.574.193-.317.291-.693.291-1.128zM102.883 13.433h-1.047v-2.7c0-.832-.316-1.248-.951-1.248-.311 0-.562.114-.756.343s-.291.499-.291.808v2.796h-1.049v-3.366c0-.414-.012-.863-.037-1.349h.92l.049.737h.029a1.53 1.53 0 0 1 .543-.569c.285-.176.602-.265.951-.265.439 0 .805.142 1.096.427.363.349.543.87.543 1.562v2.824zM109.936 9.504h-1.154v2.29c0 .582.205.873.611.873.188 0 .344-.016.467-.049l.027.795c-.207.078-.479.117-.814.117-.414 0-.736-.126-.969-.378-.234-.252-.35-.676-.35-1.271V9.504h-.689v-.785h.689v-.864l1.027-.31v1.173h1.154v.786zM115.484 13.433h-1.049v-2.68c0-.845-.316-1.268-.949-1.268-.486 0-.818.245-1 .735a1.317 1.317 0 0 0-.049.377v2.835h-1.047V6.556h1.047v2.841h.02c.33-.517.803-.775 1.416-.775.434 0 .793.142 1.078.427.355.355.533.883.533 1.581v2.803zM121.207 10.853c0 .188-.014.346-.039.475h-3.143c.014.466.164.821.455 1.067.266.22.609.33 1.029.33.465 0 .889-.074 1.271-.223l.164.728c-.447.194-.973.291-1.582.291-.73 0-1.305-.215-1.721-.645-.418-.43-.625-1.007-.625-1.731 0-.711.193-1.303.582-1.775.406-.504.955-.756 1.648-.756.678 0 1.193.252 1.541.756.281.4.42.895.42 1.483zm-1-.271a1.411 1.411 0 0 0-.203-.805c-.182-.291-.459-.437-.834-.437a.995.995 0 0 0-.834.427 1.586 1.586 0 0 0-.311.815h2.182z"/></g></symbol><symbol viewBox="9.899993896484375 30.299999237060547 141.60000610351562 104.59999084472656" id="book-format"><title>book-format</title> <path d="M80.7,30.3l-70.8,6v98.6l70.8-6l70.8,6V36.3L80.7,30.3z M16,41.9l63.1-5.4v86.4L16,128.3V41.9z M145.5,128.3
	l-63.3-5.4V36.6l63.3,5.4V128.3z"/> </symbol><symbol viewBox="0 0 55.18 47.79" id="cart"><title>NAPs_Pricing_Cart_Icon</title><g id="cart-Isolation_Mode" data-name="Isolation Mode"><path class="cls-1" d="M17,29" transform="translate(-0.01 0)"/><polyline class="cls-2" points="1.15 1.15 7.45 1.15 15.04 29.04 47.34 29.04 54.04 9.22 10.15 9.22"/><polyline class="cls-2" points="9.31 7.97 16.9 35.86 46.17 35.86"/><circle class="cls-3" cx="21.69" cy="44.11" r="3.65"/><circle class="cls-3" cx="41.3" cy="44.14" r="3.65"/></g></symbol><symbol viewBox="0 0 160 159.8" id="cash"><title>cash</title><path d="M150.2 54c0-1.1-.6-2-1.5-2.6l-8.7-4.9 8.7-4.8c.9-.5 1.5-1.5 1.5-2.5 0-1.1-.6-2-1.5-2.6L101 9.6c-.8-.5-1.9-.5-2.7-.1L11.7 52c-1 .5-1.6 1.4-1.6 2.5-.1 1.1.5 2.1 1.4 2.6l8.8 5.5-8.6 4.2c-1 .5-1.6 1.4-1.6 2.5-.1 1.1.5 2.1 1.4 2.6l9.3 5.8-9 4.4c-1 .5-1.6 1.4-1.6 2.5-.1 1.1.5 2.1 1.4 2.6l9.3 5.8-9.1 4.4c-1 .5-1.6 1.4-1.6 2.5-.1 1.1.5 2.1 1.4 2.6l9.3 5.8-9.1 4.4c-1 .5-1.6 1.4-1.6 2.5-.1 1.1.5 2.1 1.4 2.6l49.7 31c.5.3 1 .4 1.5.4s1-.1 1.4-.4l84.7-46.5c.9-.5 1.5-1.5 1.5-2.5 0-1.1-.6-2-1.5-2.6l-9.2-5.2 9.2-5c.9-.5 1.5-1.5 1.5-2.5 0-1.1-.6-2-1.5-2.6l-9.2-5.2 9.2-5c.9-.5 1.5-1.5 1.5-2.5 0-1.1-.6-2-1.5-2.6l-9.2-5.2 9.2-5c.7-.4 1.3-1.4 1.3-2.4zM99.5 15.5l41.8 23.6-18.7 10.3-39.8-25.8 16.7-8.1zM88.6 69.2L46.2 41.6l30.5-15 42.4 27.5v58l-29.2 16.1V71.6c0-1-.5-1.9-1.3-2.4zM40.1 44.6l41.8 27.1-19.2 10.6L19 54.9l21.1-10.3zm-14 21.7l35 21.8c.5.3 1 .4 1.5.4s1-.1 1.4-.4l20.1-11v8.2L62.7 97.1 19 69.8l7.1-3.5zm.5 15.1l34.5 21.5c.5.3 1 .4 1.5.4s1-.1 1.4-.4l20.1-11v8.7l-21.4 11.7L19 85.1l7.6-3.7zm0 15.3l34.5 21.5c.5.3 1 .4 1.5.4s1-.1 1.4-.4l20.1-11v8.7l-21.4 11.7L19 100.5l7.6-3.8zm36.1 46.4L19 115.8l7.6-3.7 34.5 21.5c.5.3 1 .4 1.5.4s1-.1 1.4-.4l20.1-11v8.7l-21.4 11.8zm78.6-43.1l-16.3 8.9v-8.7l8.5-4.7 7.8 4.5zm0-15.4l-16.3 9v-8.7l8.5-4.7 7.8 4.4zm0-15.3L125 78.2v-8.7l8.5-4.7 7.8 4.5zM125 62.9v-8.2l9-4.9 7.3 4.1-16.3 9z"/><path class="st0" d="M97 57.4l2.5-1.6-4.3-2.6c3.3-3.1 2.4-6.4-.9-8.3-3.7-2.2-7.9-2.1-13.7-.5-4.9 1.4-7.4 1.7-9.6.4-1.7-1-2.4-2.9.6-4.9 2.5-1.7 5-2.2 6.4-2.4l-1.8-2.3c-1.8.3-4.1 1-6.5 2.5l-4-2.4-2.5 1.7 4.2 2.5c-3 2.8-2.7 5.9.8 7.9 3.6 2.1 8 1.6 13.7 0 4.1-1.2 7.1-1.4 9.4 0 2.4 1.4 2.2 3.7-.6 5.5-2.2 1.5-5 2.3-7.4 2.7l1.8 2.3c2.4-.3 5.5-1.4 7.8-2.9l4.1 2.4z"/></symbol><symbol viewBox="0 0 30 30" id="facebook"><title>Blurb_Footer_SocialIcons</title><g id="facebook-Icons"><path class="cls-1" d="M15,0A15,15,0,1,0,30,15,15,15,0,0,0,15,0Zm2.91,12.77-.15,2h-2v6.84H13.18V14.74H11.82v-2h1.36V11.45a3.54,3.54,0,0,1,.44-2,2.42,2.42,0,0,1,2.11-1,8.55,8.55,0,0,1,2.44.25l-.34,2a4.59,4.59,0,0,0-1.1-.16c-.53,0-1,.19-1,.72v1.54Z"/></g></symbol><symbol viewBox="0 0 160 159.8" id="fees-checklist"><title>fees-checklist</title><path d="M69.5 69.9v-7h44v7h-44zm0 31.9v-7h44v7h-44zm0 31.9v-7h44v7h-44zM48.3 69.9c1.1 1.1 2.9 2.1 4.5 2.1 1 0 2.3-.6 2.3-1.8 0-1.4-1.9-1.6-3.9-2.4-1.9-.7-3.9-1.8-3.9-4.9 0-2.9 2-5.7 5.1-5.9v-3h2.3v3c1.6.2 3.2.6 4.5 1.4L57.4 62c-.9-.7-2-1.2-3.2-1.2-1.1 0-2.1.4-2.1 1.4 0 1.1 1.6 1.6 2.4 1.9 2.8.9 5.4 2 5.4 5.5s-2 5.3-5.2 6.1v3.1h-2.3v-3c-1.1 0-2.2-.2-3.2-.6s-2.1-.9-2.9-1.6l2-3.7zm0 63.6c1.1 1.1 2.9 2.1 4.5 2.1 1 0 2.3-.6 2.3-1.8 0-1.4-1.9-1.6-3.9-2.4-1.9-.7-3.9-1.8-3.9-4.9 0-2.9 2-5.7 5.1-5.9v-3h2.3v3c1.6.2 3.2.6 4.5 1.4l-1.8 3.6c-.9-.7-2-1.2-3.2-1.2-1.1 0-2.1.4-2.1 1.4 0 1.1 1.6 1.6 2.4 1.9 2.8.9 5.4 2 5.4 5.5s-2 5.3-5.2 6.1v3.1h-2.3v-3c-1.1 0-2.2-.2-3.2-.6s-2.1-.9-2.9-1.6l2-3.7zm0-31.8c1.1 1.1 2.9 2.1 4.5 2.1 1 0 2.3-.6 2.3-1.8 0-1.4-1.9-1.6-3.9-2.4-1.9-.7-3.9-1.8-3.9-4.9 0-2.9 2-5.7 5.1-5.9v-3h2.3v3c1.6.2 3.2.6 4.5 1.4l-1.8 3.6c-.9-.7-2-1.2-3.2-1.2-1.1 0-2.1.4-2.1 1.4 0 1.1 1.6 1.6 2.4 1.9 2.8.9 5.4 2 5.4 5.5s-2 5.3-5.2 6.1v3.1h-2.3v-3c-1.1 0-2.2-.2-3.2-.6s-2.1-.9-2.9-1.6l2-3.7z"/><circle class="st0" cx="80" cy="21.4" r="3.1"/><path class="st0" d="M120.9 29H116c-.4-5.9-5.4-10.7-11.5-10.7h-5.4v-.8c0-8.5-6.9-15.4-15.4-15.4h-7.5c-8.5 0-15.4 6.9-15.4 15.4v.8h-5.4c-6.1 0-11 4.7-11.5 10.7H39c-6.3 0-11.5 5.2-11.5 11.5v105.6c0 6.3 5.2 11.5 11.5 11.5h81.8c6.3 0 11.5-5.2 11.5-11.5V40.5c.1-6.3-5.1-11.5-11.4-11.5zm-70.9.9c0-.3 0-.6.1-.8.4-2.6 2.7-4.7 5.4-4.7h11.4v-6.8c0-5.2 4.2-9.3 9.4-9.3h7.5c5.2 0 9.4 4.2 9.4 9.4v6.8h11.3c2.7 0 5 2 5.4 4.7 0 .3.1.6.1.8v5.2c-.2 2.9-2.6 5.1-5.5 5.1h-49c-2.9 0-5.3-2.3-5.5-5.1v-5.3zm76.4 116.2c0 3-2.5 5.5-5.5 5.5H39.1c-3 0-5.5-2.5-5.5-5.5V40.5c0-3 2.5-5.5 5.5-5.5H44c.2 6.2 5.3 11.1 11.5 11.1h49c6.2 0 11.3-5 11.5-11.1h4.9c3 0 5.5 2.5 5.5 5.5v105.6z"/></symbol><symbol viewBox="0 0 30 30" id="instagram"><title>Blurb_Footer_SocialIcons</title><g id="instagram-Icons"><polygon class="cls-1" points="20.92 11.68 20.92 9.41 20.92 9.07 20.58 9.07 18.31 9.08 18.32 11.69 20.92 11.68"/><path class="cls-1" d="M19.21,15a4.21,4.21,0,1,1-8.12-1.58H8.8v6.31a1.48,1.48,0,0,0,1.48,1.48h9.46a1.48,1.48,0,0,0,1.48-1.48V13.42H18.9A4.22,4.22,0,0,1,19.21,15Z"/><path class="cls-1" d="M15,0A15,15,0,1,0,30,15,15,15,0,0,0,15,0Zm7.71,13.42v6.31a3,3,0,0,1-3,3H10.27a3,3,0,0,1-3-3V10.28a3,3,0,0,1,3-3h9.46a3,3,0,0,1,3,3Z"/><path class="cls-1" d="M15,17.71A2.71,2.71,0,1,0,12.29,15,2.71,2.71,0,0,0,15,17.71Z"/></g></symbol><symbol viewBox="0 0 30 30" id="linkedin"><title>Blurb_Footer_SocialIcons</title><g id="linkedin-Icons"><path class="cls-1" d="M15,0A15,15,0,1,0,30,15,15,15,0,0,0,15,0ZM11.76,20.45H9.19V12.23h2.57ZM10.41,11.2h0a1.43,1.43,0,1,1,0-2.85,1.43,1.43,0,1,1,0,2.85ZM22,20.45H19.12V16.2c0-1.11-.45-1.87-1.46-1.87a1.47,1.47,0,0,0-1.39,1,1.86,1.86,0,0,0-.06.67v4.45H13.32s0-7.54,0-8.22h2.88v1.29a2.63,2.63,0,0,1,2.56-1.37c1.82,0,3.26,1.18,3.26,3.73Z"/></g></symbol><symbol viewBox="0 0 160 159.8" id="megaphone"><title>megaphone</title> <style type="text/css"> .st0{fill:#9E9E9E;} </style> <g> <path class="st0" d="M61.8,99.6c0.2,1.3,0.3,2.6,0.5,3.9c0.5,3.6,1,7.1,1.4,10.7c0.5,3.5,0.9,7,1.4,10.6c0.5,3.5,0.9,7,1.4,10.5
		c0.4,2.9,0.7,5.8,1.2,8.6c0.3,2.3-1.1,4.1-3.4,4.1c-8.4,0-16.9,0-25.3,0c-2,0-3.2-1.1-3.4-3c-0.8-5.9-1.6-11.8-2.4-17.7
		c-0.8-6.2-1.6-12.4-2.5-18.6c-0.4-3-0.8-6-1.2-9.1c-0.3,0-0.5,0-0.8,0c-2.1,0-4.2,0.1-6.3-0.2c-5.3-0.6-9.7-4.9-10.8-10.1
		c-0.2-0.8-0.3-1.6-0.3-2.4c0-9.7,0-19.4,0-29.1c0-5.8,4.2-11.2,9.9-12.7c1-0.3,2-0.4,3-0.4c19.1,0,38.1-0.1,57.2,0
		c4.9,0,9.2-1.3,13-4.2c2.3-1.8,4.5-3.7,6.7-5.6c7.1-6.1,14.2-12.2,21.3-18.3c1.6-1.4,3.5-2.4,5.7-2.5c3.3-0.2,6,1.9,6.9,5.3
		c0.3,1.1,0.4,2.2,0.4,3.3c0,10.6,0,21.2,0,31.8c0,0.6,0.2,0.8,0.7,1c3.3,1.2,6.6,2.4,9.8,3.7c1.6,0.6,2.3,1.6,2.3,3.4
		c0,5.8,0,11.5,0,17.3c0,1.7-0.7,2.7-2.3,3.3c-3.3,1.3-6.6,2.5-10,3.7c-0.5,0.2-0.6,0.4-0.6,1c0,11.3,0,22.7,0,34
		c0,1.2-0.2,2.4-0.5,3.5c-1.3,4.4-5.3,6.2-9.5,4.5c-1.2-0.5-2.3-1.2-3.3-2c-8.8-7.7-17.6-15.4-26.5-23c-3-2.6-6.4-4.5-10.3-5.1
		c-0.7-0.1-1.5-0.2-2.2-0.2c-6.9,0-13.8,0-20.8,0C62.3,99.6,62.1,99.6,61.8,99.6z M128.7,20.6c-1.1,0.2-1.8,0.7-2.5,1.3
		c-8.3,7.2-16.7,14.4-25,21.6c-3.3,2.9-6.9,5.2-11,6.6c-2.3,0.8-4.6,1.2-7,1.2c-1.4,0-2.7,0-4.1,0c0,14,0,28,0,41.9
		c0.6,0,1.3,0,1.9,0c2.2,0,4.5,0,6.7,0.5c4.9,1.2,9.2,3.6,12.9,6.9c8.6,7.5,17.2,15,25.8,22.5c0.6,0.5,1.4,0.9,2.1,1.3
		c0.1,0,0.2-0.1,0.3-0.1c0.1-0.9,0.3-1.7,0.3-2.6c0-32.8,0-65.6,0-98.4c0-0.3,0-0.5,0-0.8C128.9,21.8,128.8,21.2,128.7,20.6z
		 M72.6,51.2c-0.2,0-0.4,0-0.6,0c-15.9,0-31.8,0-47.7,0c-0.3,0-0.5,0-0.8,0.1c-3.2,0.5-5.6,3.4-5.7,6.8c0,9.5,0,19.1,0,28.6
		c0,3.7,2.9,6.5,6.6,6.5c15.8,0,31.7,0,47.5,0c0.2,0,0.5,0,0.7,0C72.6,79.2,72.6,65.2,72.6,51.2z M36,99.6c1.9,14,3.7,27.9,5.6,41.9
		c6.4,0,12.8,0,19.3,0c-1.9-14-3.7-27.9-5.6-41.9C48.8,99.6,42.4,99.6,36,99.6z M135.5,80.4c2.1-0.8,4.1-1.5,6.1-2.3
		c0.2-0.1,0.3-0.4,0.3-0.6c0-4.1,0-8.2,0-12.3c0-0.4-0.1-0.6-0.5-0.7c-1.2-0.4-2.5-0.9-3.7-1.4c-0.7-0.3-1.5-0.5-2.3-0.8
		C135.5,68.4,135.5,74.4,135.5,80.4z"/> </g> </symbol><symbol viewBox="0 0 160 159.8" id="price-tag"><title>price-tag</title><path d="M152.4 65.5V19.4c-.2-6.6-5.8-12-12.5-11.9-14.9.3-29.8.1-44.8.1-2.2 0-4.3 0-6.5.2-2.8.2-5.3 1.2-7.5 3.3-23.5 23.5-47 47.1-70.6 70.6-4 4-4 9.9 0 14 17.9 17.9 35.7 35.8 53.6 53.6 4 4 9.9 4 14 0l70.5-70.5c2.1-2.1 3.5-4.5 3.7-7.4.2-1.9.1-3.8.1-5.9zm-6.4 0v3.9c0 2.2-.7 4-2.3 5.6-23.3 23.2-46.6 46.5-69.9 69.8-2.2 2.2-3 2.2-5.2 0C50.8 127 33 109.1 15.1 91.3c-2.2-2.2-2.3-3-.1-5.2 23.4-23.4 46.8-46.8 70.2-70.3 1.2-1.2 2.6-1.8 4.2-1.9h50.9c4.2 0 5.5 1.4 5.5 5.5v42.9c.2.3.2 1.7.2 3.2z"/><path class="st0" d="M104.6 60.6c-1-1.2-1.8-2.2-2.9-3.4-1.1 1.3-2.1 2.5-3.1 3.7-.8-.6-1.4-1-1.9-1.4-7.6-5.2-17.1-3.2-22.1 4.6-1.3 2-1.9 4.2-1.6 6.6.4 3.7 2.1 6.8 3.9 9.9.5.9.5 1.4-.3 2.2-4 3.9-7.9 7.9-11.9 11.8-.3.3-.6.5-.9.8-1.5-2-2.3-4.1-2.5-6.5-.4-3.4 1-6.3 3.1-8.7-1.5-1.5-2.9-2.9-4.3-4.4-2.5 2.8-4.3 6-4.8 9.8-.7 5.3 1.2 9.9 4.7 14.2-1.5 1.3-3 2.6-4.4 3.7 1.1 1.1 1.9 2.1 2.9 3.2 1.4-1.5 2.6-2.9 4-4.4.8.6 1.3 1 1.8 1.4 3.4 2.4 7.1 3.7 11.4 3.5 6.2-.4 14.9-6.6 13.1-16.3-.6-3.4-2.2-6.2-4-9.1-.5-.8-.4-1.3.3-1.9 3.8-3.7 7.5-7.4 11.2-11.2.2-.2.4-.4.7-.6 2.4 3.5 2.4 7 .5 10.6-.2.5-.5 1.3-.2 1.6 1.2 1.4 2.5 2.6 3.9 4 4.3-7 5.3-13.7-.1-20.7 1.3-1.2 2.5-2.2 3.5-3zM79 99.3c-3.8 3.1-8.7 2.7-12-.9 4.3-4.3 8.5-8.5 12.8-12.7 3.7 5.2 3.5 10.1-.8 13.6zm3.2-22.5c-3.3-4.3-3.2-8.7.4-11.9 3.4-3.1 8-3 11.4.1-4 3.9-7.9 7.8-11.8 11.8zm41.7-53.4c-6.5 0-12.5 6-12.6 12.5-.1 6.5 6 12.6 12.6 12.7 6.5 0 12.6-6.1 12.6-12.6 0-6.6-6-12.6-12.6-12.6zm-.1 18.8c-3.9 0-6.2-2.4-6.2-6.4 0-3.8 2.4-6.2 6.3-6.2s6.3 2.5 6.3 6.4c0 3.9-2.4 6.3-6.4 6.2z"/></symbol><symbol viewBox="0 0 160 159.8" id="storefront"><title>storefront</title> <style type="text/css"> .st0{fill:#9E9E9E;} </style> <g> <path class="st0" d="M150.2,64.4c-3-7.9-6-16-8.9-23.8l-3.3-8.8c-0.6-1.6-1.5-2.2-3.1-2.2l-8.5,0l0-1.6c0-1,0-2.1,0-3.1
		c0-4.1-2.9-8-6.7-9.3c-1.1-0.4-2.2-0.5-3.4-0.5c-24.3,0-48.6,0-72.8,0c-5,0-9.1,3.4-9.9,8.3c-0.2,1.4-0.2,2.8-0.2,4.1
		c0,0.6,0,1.2,0,1.8c0,0.1,0,0.2,0,0.4h-8.2c-1.9,0-2.7,0.6-3.4,2.4l-2.4,6.5c-3.3,8.9-6.6,17.9-10,26.9c-0.2,0.5-0.2,1.2-0.2,1.8
		c0,0.3,0.1,0.6,0.1,0.9c0,0.2,0.1,0.3,0.1,0.5c0.8,5.7,5.7,10.2,11.4,10.4c0.7,0,1.5,0,2.2,0c0.2,0,0.4,0,0.6,0l0,13.2
		c0,17.1,0,34.3,0,51.4c0,1,0.3,1.9,0.9,2.5c0.6,0.6,1.4,0.9,2.4,0.9c0,0,0,0,0.1,0c2.7,0,5.5,0,8.2,0c2,0,3.9,0,5.9,0
		c0.6,0,1.2-0.2,1.8-0.5c1.1-0.7,1.2-1.9,1.2-2.7c0-8.1,0-16.2,0-24.2v-6.4h13.5v29.7l0,0.4c0,0.3,0,0.6,0,0.9
		c0,1.6,1.3,2.8,2.8,2.8c0.2,0,0.5,0,0.7,0c0.2,0,0.3,0,0.5,0l71.3,0c1.5,0,2.7-0.8,3-2.1c0.1-0.4,0.1-0.8,0.1-1.3
		c0-17.9,0-35.7,0-53.6v-11c0,0,0,0,0.1,0c6,0.9,11.4-2.2,13.5-7.8C150.5,69,151.2,66.8,150.2,64.4z M63.6,109.9
		c-0.1-1.7-1.3-2.8-3-2.9c-6.4,0-12.9,0-19.3,0c-1.8,0-3,1.2-3,3l0,30.8h-8.7v-4.8c0-19.8,0-39.7,0-59.5c0-0.3,0.1-0.5,0.3-0.6
		c0.5-0.4,1-0.9,1.5-1.3l0.2-0.2c2.4,3,5.7,4.5,9.6,4.5c0,0,0,0,0,0c4,0,7.2-1.6,9.7-4.7c2.5,3.1,5.7,4.7,9.7,4.7c0,0,0,0,0,0
		c4,0,7.2-1.6,9.7-4.7c2.5,3.1,5.7,4.7,9.7,4.7c0,0,0,0,0,0c3.9,0,7.2-1.6,9.7-4.7c2.5,3.1,5.7,4.7,9.6,4.7c0,0,0,0,0,0
		c4,0,7.2-1.6,9.7-4.7c2.5,3.1,5.7,4.7,9.7,4.7c0,0,0,0,0,0c4,0,7.2-1.6,9.7-4.7l0.2,0.2c0.6,0.6,1.2,1.1,1.7,1.8c0,0.1,0,0.2,0,0.3
		l0,64.4H63.6v-30.3l0-0.2C63.6,110.3,63.6,110.1,63.6,109.9z M126.9,63.9c-0.9,0.5-1.3,1.4-1.3,2.4c-0.1,3.6-2.4,6.2-5.9,6.8
		c-1.7,0.3-3.6-0.3-5-1.5c-1.5-1.2-2.4-2.9-2.5-4.6l0-0.1c0-0.4,0-0.8-0.1-1.2c-0.3-1.5-1.7-2.4-3.3-2.2c-1.4,0.2-2.5,1.4-2.5,2.9
		c-0.1,3.6-2.4,6.2-6,6.8c-1.7,0.3-3.6-0.3-5-1.5c-1.5-1.2-2.4-2.9-2.5-4.6l0-0.1c0-0.4,0-0.8-0.1-1.2c-0.3-1.3-1.5-2.2-2.9-2.2
		c-0.1,0-0.3,0-0.4,0c-1.3,0.2-2.4,1.4-2.5,2.8c-0.1,3.7-2.3,6.2-5.9,6.8c-1.7,0.3-3.6-0.2-5.1-1.4c-1.5-1.2-2.4-2.9-2.5-4.7l0-0.1
		c0-0.4,0-0.8-0.1-1.2c-0.4-1.4-1.7-2.3-3.3-2.1c-1.3,0.2-2.4,1.4-2.5,2.8c-0.1,3.7-2.3,6.2-5.9,6.8c-1.7,0.3-3.6-0.2-5.1-1.4
		c-1.5-1.2-2.4-2.9-2.5-4.7l0-0.1c0-0.4,0-0.8-0.1-1.2c-0.4-1.4-1.7-2.3-3.3-2.1c-1.3,0.2-2.4,1.4-2.5,2.8c-0.1,3.7-2.3,6.2-5.9,6.8
		c-1.7,0.3-3.6-0.2-5.1-1.4c-1.5-1.2-2.4-2.9-2.5-4.7l0-0.1c0-0.4,0-0.8-0.1-1.3c-0.4-1.4-1.7-2.3-3.3-2.1c-1.4,0.2-2.4,1.4-2.5,2.9
		c-0.1,3.5-2.3,6.1-5.8,6.7c-1.6,0.3-3.4-0.1-4.8-1.2c-1.5-1-2.5-2.6-2.7-4.3c-0.1-0.5,0-1,0.2-1.6c3.7-10.1,7.5-20.1,11.2-30.2
		c0.1-0.4,0.2-0.4,0.6-0.4c0,0,0,0,0,0c15.1,0,30.3,0,45.4,0h15.1c15,0,30,0,45,0c0.5,0,0.5,0.1,0.7,0.5
		c3.7,10.1,7.4,20.1,11.2,30.2c0.2,0.6,0.2,1.1,0.1,1.8c-0.8,3.3-3.8,5.5-7.1,5.2c-3.4-0.3-6-3.1-6.1-6.5c0-1.4-0.6-2.3-1.6-2.8
		C128.8,63.2,127.8,63.3,126.9,63.9z M43.5,20.9c24.3,0,48.7,0,73,0c2.3,0,4,1.6,4.1,3.9c0,1.2,0,2.4,0,3.6c0,0.4,0,0.8,0,1.2H39.3
		c0-0.5,0-0.9,0-1.4c0-1.4,0-2.8,0.2-4.1C39.8,22.2,41.4,20.9,43.5,20.9z"/> <path class="st0" d="M85.1,127.4l16.7,0l16.7,0c2,0,3.2-1.2,3.2-3.2c0-9.5,0-19,0-28.5c0-1.9-1.3-3.2-3.2-3.2
		c-11.1,0-22.3,0-33.4,0c-2,0-3.2,1.2-3.2,3.2c0,9.5,0,19,0,28.5C81.9,126.2,83.1,127.4,85.1,127.4z M87.8,121.5V98.4h28v23.1H87.8z
		"/> </g> </symbol><symbol viewBox="0 0 160 159.8" id="truck-shipping"><title>truck-shipping</title> <style type="text/css"> .st0{fill:#9E9E9E;} </style> <g> <path class="st0" d="M141.2,61.8L130.2,37h-20h-5H17.8v19.5h5V42h82.4v58.4H22.8V85.3h-5v20.1h3.5v14.5h11.1c2.1,5,7,8.6,12.7,8.6
		s10.7-3.5,12.7-8.6h58.6c2.1,5,7,8.6,12.7,8.6c5.7,0,10.7-3.5,12.7-8.6h13.5v-14.5v-5V71.6L141.2,61.8z M31.3,114.8h-5.1v-9.5h8.7
		c-0.1,0.1-0.1,0.2-0.2,0.3c-0.1,0.1-0.3,0.3-0.4,0.5c-0.1,0.2-0.3,0.4-0.4,0.6c-0.1,0.2-0.2,0.3-0.3,0.5c-0.1,0.2-0.2,0.4-0.4,0.6
		c-0.1,0.2-0.2,0.3-0.3,0.5c-0.1,0.2-0.2,0.4-0.3,0.6c-0.1,0.2-0.2,0.4-0.2,0.5c-0.1,0.2-0.2,0.5-0.3,0.7c-0.1,0.2-0.1,0.4-0.2,0.5
		c-0.1,0.2-0.1,0.5-0.2,0.8c0,0.2-0.1,0.3-0.1,0.5c-0.1,0.3-0.1,0.6-0.1,0.9c0,0.2,0,0.3-0.1,0.5c0,0.4-0.1,0.9-0.1,1.4
		C31.3,114.7,31.3,114.8,31.3,114.8z M45.1,123.4c-3.9,0-7.1-2.5-8.3-6l-0.2-0.7c-0.2-0.8-0.3-1.5-0.3-2.1c0-4.8,3.9-8.8,8.8-8.8
		s8.8,3.9,8.8,8.8c0,0.6-0.1,1.3-0.3,2.1l-0.2,0.7C52.2,120.9,49,123.4,45.1,123.4z M115.4,114.8H58.9c0-0.1,0-0.2,0-0.2
		c0-0.5,0-0.9-0.1-1.4c0-0.2,0-0.3-0.1-0.4c0-0.3-0.1-0.6-0.1-0.9c0-0.2-0.1-0.4-0.1-0.5c-0.1-0.3-0.1-0.5-0.2-0.8
		c-0.1-0.2-0.1-0.4-0.2-0.5c-0.1-0.2-0.2-0.5-0.3-0.7c-0.1-0.2-0.2-0.4-0.2-0.5c-0.1-0.2-0.2-0.4-0.3-0.6c-0.1-0.2-0.2-0.3-0.3-0.5
		c-0.1-0.2-0.2-0.4-0.4-0.6c-0.1-0.2-0.2-0.3-0.3-0.5c-0.1-0.2-0.3-0.4-0.4-0.6c-0.1-0.2-0.2-0.3-0.4-0.5c-0.1-0.1-0.1-0.2-0.2-0.3
		h49.9h5h8.9c-0.1,0.1-0.1,0.2-0.2,0.3c-0.1,0.1-0.3,0.3-0.4,0.5c-0.1,0.2-0.3,0.4-0.4,0.6c-0.1,0.2-0.2,0.3-0.3,0.5
		c-0.1,0.2-0.2,0.4-0.4,0.6c-0.1,0.2-0.2,0.3-0.3,0.5c-0.1,0.2-0.2,0.4-0.3,0.6c-0.1,0.2-0.2,0.4-0.2,0.5c-0.1,0.2-0.2,0.5-0.3,0.7
		c-0.1,0.2-0.1,0.4-0.2,0.5c-0.1,0.2-0.1,0.5-0.2,0.8c0,0.2-0.1,0.3-0.1,0.5c-0.1,0.3-0.1,0.6-0.1,0.9c0,0.2,0,0.3-0.1,0.5
		c0,0.4-0.1,0.9-0.1,1.4C115.4,114.7,115.4,114.8,115.4,114.8z M129.2,123.4c-3.9,0-7.1-2.5-8.3-6l-0.2-0.7
		c-0.2-0.8-0.3-1.5-0.3-2.1c0-4.8,3.9-8.8,8.8-8.8c4.8,0,8.8,3.9,8.8,8.8c0,0.6-0.1,1.3-0.3,2.1l-0.2,0.7
		C136.4,120.9,133.1,123.4,129.2,123.4z M150.5,114.8H143c0-0.1,0-0.2,0-0.2c0-0.5,0-0.9-0.1-1.4c0-0.2,0-0.3-0.1-0.4
		c0-0.3-0.1-0.6-0.1-0.9c0-0.2-0.1-0.4-0.1-0.5c-0.1-0.3-0.1-0.5-0.2-0.8c-0.1-0.2-0.1-0.4-0.2-0.5c-0.1-0.2-0.2-0.5-0.3-0.7
		c-0.1-0.2-0.2-0.4-0.2-0.5c-0.1-0.2-0.2-0.4-0.3-0.6c-0.1-0.2-0.2-0.3-0.3-0.5c-0.1-0.2-0.2-0.4-0.4-0.6c-0.1-0.2-0.2-0.3-0.3-0.5
		c-0.1-0.2-0.3-0.4-0.4-0.6c-0.1-0.2-0.2-0.3-0.4-0.5c-0.1-0.1-0.1-0.2-0.2-0.3h11.1V114.8z M110.1,100.4V42h16.8l10.3,23.1
		l13.3,9.2v26.1H110.1z"/> <rect x="3.3" y="62.4" class="st0" width="33" height="5.8"/> <rect x="8.1" y="74.6" class="st0" width="23.4" height="5.6"/> </g> </symbol><symbol viewBox="0 0 30 30" id="twitter"><title>Blurb_Footer_SocialIcons</title><g id="twitter-Icons"><path class="cls-1" d="M15,0A15,15,0,1,0,30,15,15,15,0,0,0,15,0Zm5.24,12.31c0,.11,0,.23,0,.35A7.69,7.69,0,0,1,8.41,19.14a5.46,5.46,0,0,0,4-1.12,2.7,2.7,0,0,1-2.52-1.88,2.67,2.67,0,0,0,.51,0,2.63,2.63,0,0,0,.71-.1,2.7,2.7,0,0,1-2.17-2.65v0a2.71,2.71,0,0,0,1.22.34,2.71,2.71,0,0,1-.84-3.61A7.67,7.67,0,0,0,14.9,13a2.66,2.66,0,0,1-.07-.62A2.7,2.7,0,0,1,19.5,10.5a5.39,5.39,0,0,0,1.72-.65A2.7,2.7,0,0,1,20,11.34a5.42,5.42,0,0,0,1.55-.43A5.48,5.48,0,0,1,20.24,12.31Z"/></g></symbol></svg>